<svg width="183" height="106" viewBox="0 0 183 106" fill="none" xmlns="http://www.w3.org/2000/svg">
<path d="M130.373 75.1257H114.363V65.4215H130.101V67.1612H116.347V73.4132H130.373V75.1257ZM123.17 87.4665L121.62 87.9829C121.349 88.0645 121.158 87.9557 121.158 87.7111V79.8826H111.21V78.1429H133.119V79.8826H123.17V87.4665ZM152.909 87.7383H137.605V81.731H150.463V79.203H137.605V77.5177H152.501V83.3347H139.644V86.053H152.909V87.7383ZM146.902 74.7179L145.597 76.077L140.16 71.3473L134.507 76.3489L133.202 74.9897L139.155 69.7979V67.6777H133.854V65.938H139.155V63.5731H141.193V65.938H146.304V67.6777H141.193V69.7979L146.902 74.7179ZM152.501 75.8868L150.952 76.4032C150.707 76.512 150.517 76.376 150.517 76.1314V63.9265H152.501V75.8868ZM174.358 82.8998C174.358 85.156 172.863 87.7111 168.677 87.7111H163.892C159.706 87.7111 158.211 85.156 158.211 82.8998C158.211 80.6437 159.706 78.1157 163.892 78.1157H168.677C172.863 78.1157 174.358 80.6437 174.358 82.8998ZM172.319 82.8998C172.319 80.9971 171.069 79.8282 168.812 79.8282H163.757C161.5 79.8282 160.25 80.9971 160.25 82.8998C160.25 84.8026 161.5 85.9714 163.757 85.9714H168.812C171.069 85.9714 172.319 84.8026 172.319 82.8998ZM168.432 74.881L167.046 76.1586L161.201 70.2056L155.113 76.4304L153.753 75.18L160.196 68.6291V64.4702H162.234V68.6562L168.432 74.881ZM174.086 77.1915L172.536 77.708C172.292 77.7895 172.102 77.6808 172.102 77.409V69.7164H166.964V67.9767H172.102V63.9265H174.086V77.1915Z" fill="white"/>
<path fill-rule="evenodd" clip-rule="evenodd" d="M57.6162 38.2602C57.4981 38.17 57.4025 38.0419 57.3479 37.876L55.9106 33.5056C55.8318 33.2662 55.644 33.0784 55.4046 32.9996L51.0343 31.5623C50.3066 31.323 50.3066 30.2936 51.0343 30.0543L55.4046 28.617C55.644 28.5383 55.8318 28.3505 55.9106 28.111L57.3479 23.7407C57.5872 23.013 58.6166 23.013 58.8559 23.7407L60.2932 28.111C60.372 28.3505 60.5598 28.5383 60.7992 28.617L65.1695 30.0543C65.8972 30.2936 65.8972 31.323 65.1695 31.5623L60.7992 32.9996C60.5598 33.0784 60.372 33.2662 60.2932 33.5056L58.8861 37.784C59.0527 39.2157 59.1781 40.8495 59.1781 42.4833C59.1781 55.951 51.5753 67.8982 36.4785 67.8982C25.5088 67.8982 18.9922 60.2955 18.9922 49.543C18.9922 25.7573 51.1409 9.03125 74.818 9.03125C84.4844 9.03125 92.7388 10.769 100.776 14.136C106.424 11.7465 112.289 9.35708 118.479 9.03125L118.697 9.68292C114.678 9.68292 106.206 12.9412 103.491 15.5479C109.03 18.6976 112.614 23.8023 112.614 30.3189C112.614 42.8091 98.821 47.588 88.7202 49.2172L88.6116 49.4344C97.6262 50.5205 106.532 51.8238 106.532 63.2279C106.532 79.1937 91.544 89.1859 76.773 89.1859C70.6908 89.1859 63.4139 86.1448 63.4139 79.4109C63.4139 75.7182 66.455 72.4598 70.1478 72.4598C72.32 72.4598 74.275 73.2201 75.9041 74.632C72.9716 76.3698 71.6683 79.0851 71.6683 82.2348C71.6683 85.9276 73.8405 87.8825 77.5333 87.8825C88.9374 87.8825 96.1057 73.9804 96.1057 63.8796C96.1057 54.3219 91.1096 50.0861 80.7916 50.0861L80.9002 49.2172C91.544 48.5655 102.84 42.8091 102.84 29.8845C102.84 25.8659 101.428 21.9559 98.2779 19.2406C90.7209 25.2485 85.0699 35.5417 79.1024 46.4114C67.9169 66.7859 55.6193 89.1859 27.5724 89.1859C18.3405 89.1859 9 84.0812 9 75.1751C9 71.0479 11.2808 67.4637 15.8425 67.4637C19.2094 67.4637 21.273 69.7446 21.273 72.7857C21.273 75.5009 19.1008 77.5645 17.363 77.8904C17.2544 78.3248 17.2544 78.7592 17.2544 79.1937C17.2544 85.0587 21.273 87.8825 28.5499 87.8825C44.3661 87.8825 53.0127 72.678 62.6001 55.8192C70.9862 41.0728 80.092 25.0607 95.3454 16.8512C89.5891 12.3982 81.4433 10.3346 74.1664 10.3346C53.5303 10.3346 27.681 25.3228 27.681 49.9774C27.681 57.0371 31.4824 65.9432 39.7368 65.9432C50.9237 65.9432 57.8748 54.8649 57.8748 42.9178C57.8748 41.1197 57.7585 39.6123 57.6162 38.2602Z" fill="white"/>
<path fill-rule="evenodd" clip-rule="evenodd" d="M109.07 20.2042C111.312 22.9852 112.611 26.3962 112.611 30.3188C112.611 35.0295 110.649 38.6433 107.663 41.4049V26.3009C107.663 23.8541 108.132 21.8218 109.07 20.2042ZM110.312 18.5705C111.978 16.8803 114.342 16.0352 117.403 16.0352C120.553 16.0352 122.964 16.9295 124.636 18.7182C126.308 20.507 127.144 23.0345 127.144 26.3009V47.7655C127.144 51.0319 126.308 53.5594 124.636 55.3482C122.964 57.1369 120.553 58.0312 117.403 58.0312C114.254 58.0312 111.843 57.1369 110.171 55.3482C108.499 53.5594 107.663 51.0319 107.663 47.7655V44.0274C110.671 41.6654 113.061 38.5867 114.079 34.6388V48.1738C114.079 50.8569 115.187 52.1985 117.403 52.1985C119.62 52.1985 120.728 50.8569 120.728 48.1738V25.8926C120.728 23.2095 119.62 21.8679 117.403 21.8679C115.195 21.8679 114.087 23.1991 114.079 25.8615C113.399 23.1095 112.093 20.6644 110.312 18.5705ZM132.941 55.3482C134.613 57.1369 137.024 58.0312 140.174 58.0312C143.324 58.0312 145.735 57.1369 147.407 55.3482C149.079 53.5594 149.915 51.0319 149.915 47.7655V26.3009C149.915 23.0345 149.079 20.507 147.407 18.7182C145.735 16.9295 143.324 16.0352 140.174 16.0352C137.024 16.0352 134.613 16.9295 132.941 18.7182C131.269 20.507 130.433 23.0345 130.433 26.3009V47.7655C130.433 51.0319 131.269 53.5594 132.941 55.3482ZM143.499 48.1738C143.499 50.8569 142.39 52.1985 140.174 52.1985C137.958 52.1985 136.849 50.8569 136.849 48.1738V25.8926C136.849 23.2095 137.958 21.8679 140.174 21.8679C142.39 21.8679 143.499 23.2095 143.499 25.8926V48.1738ZM160.087 16.6184H153.671V57.448H160.087V44.4408L162.653 39.2497L168.078 57.448H174.785L167.028 31.6087L174.669 16.6184H168.253L160.087 33.8252V16.6184Z" fill="white"/>
<g filter="url(#filter0_f_387_5292)">
<path d="M130.373 75.1257H114.363V65.4215H130.101V67.1612H116.347V73.4132H130.373V75.1257ZM123.17 87.4665L121.62 87.9829C121.349 88.0645 121.158 87.9557 121.158 87.7111V79.8826H111.21V78.1429H133.119V79.8826H123.17V87.4665ZM152.909 87.7383H137.605V81.731H150.463V79.203H137.605V77.5177H152.501V83.3347H139.644V86.053H152.909V87.7383ZM146.902 74.7179L145.597 76.077L140.16 71.3473L134.507 76.3489L133.202 74.9897L139.155 69.7979V67.6777H133.854V65.938H139.155V63.5731H141.193V65.938H146.304V67.6777H141.193V69.7979L146.902 74.7179ZM152.501 75.8868L150.952 76.4032C150.707 76.512 150.517 76.376 150.517 76.1314V63.9265H152.501V75.8868ZM174.358 82.8998C174.358 85.156 172.863 87.7111 168.677 87.7111H163.892C159.706 87.7111 158.211 85.156 158.211 82.8998C158.211 80.6437 159.706 78.1157 163.892 78.1157H168.677C172.863 78.1157 174.358 80.6437 174.358 82.8998ZM172.319 82.8998C172.319 80.9971 171.069 79.8282 168.812 79.8282H163.757C161.5 79.8282 160.25 80.9971 160.25 82.8998C160.25 84.8026 161.5 85.9714 163.757 85.9714H168.812C171.069 85.9714 172.319 84.8026 172.319 82.8998ZM168.432 74.881L167.046 76.1586L161.201 70.2056L155.113 76.4304L153.753 75.18L160.196 68.6291V64.4702H162.234V68.6562L168.432 74.881ZM174.086 77.1915L172.536 77.708C172.292 77.7895 172.102 77.6808 172.102 77.409V69.7164H166.964V67.9767H172.102V63.9265H174.086V77.1915Z" fill="url(#paint0_linear_387_5292)"/>
<path fill-rule="evenodd" clip-rule="evenodd" d="M57.6162 38.2602C57.4981 38.17 57.4025 38.0419 57.3479 37.876L55.9106 33.5056C55.8318 33.2662 55.644 33.0784 55.4046 32.9996L51.0343 31.5623C50.3066 31.323 50.3066 30.2936 51.0343 30.0543L55.4046 28.617C55.644 28.5383 55.8318 28.3505 55.9106 28.111L57.3479 23.7407C57.5872 23.013 58.6166 23.013 58.8559 23.7407L60.2932 28.111C60.372 28.3505 60.5598 28.5383 60.7992 28.617L65.1695 30.0543C65.8972 30.2936 65.8972 31.323 65.1695 31.5623L60.7992 32.9996C60.5598 33.0784 60.372 33.2662 60.2932 33.5056L58.8861 37.784C59.0527 39.2157 59.1781 40.8495 59.1781 42.4833C59.1781 55.951 51.5753 67.8982 36.4785 67.8982C25.5088 67.8982 18.9922 60.2955 18.9922 49.543C18.9922 25.7573 51.1409 9.03125 74.818 9.03125C84.4844 9.03125 92.7388 10.769 100.776 14.136C106.424 11.7465 112.289 9.35708 118.479 9.03125L118.697 9.68292C114.678 9.68292 106.206 12.9412 103.491 15.5479C109.03 18.6976 112.614 23.8023 112.614 30.3189C112.614 42.8091 98.821 47.588 88.7202 49.2172L88.6116 49.4344C97.6262 50.5205 106.532 51.8238 106.532 63.2279C106.532 79.1937 91.544 89.1859 76.773 89.1859C70.6908 89.1859 63.4139 86.1448 63.4139 79.4109C63.4139 75.7182 66.455 72.4598 70.1478 72.4598C72.32 72.4598 74.275 73.2201 75.9041 74.632C72.9716 76.3698 71.6683 79.0851 71.6683 82.2348C71.6683 85.9276 73.8405 87.8825 77.5333 87.8825C88.9374 87.8825 96.1057 73.9804 96.1057 63.8796C96.1057 54.3219 91.1096 50.0861 80.7916 50.0861L80.9002 49.2172C91.544 48.5655 102.84 42.8091 102.84 29.8845C102.84 25.8659 101.428 21.9559 98.2779 19.2406C90.7209 25.2485 85.0699 35.5417 79.1024 46.4114C67.9169 66.7859 55.6193 89.1859 27.5724 89.1859C18.3405 89.1859 9 84.0812 9 75.1751C9 71.0479 11.2808 67.4637 15.8425 67.4637C19.2094 67.4637 21.273 69.7446 21.273 72.7857C21.273 75.5009 19.1008 77.5645 17.363 77.8904C17.2544 78.3248 17.2544 78.7592 17.2544 79.1937C17.2544 85.0587 21.273 87.8825 28.5499 87.8825C44.3661 87.8825 53.0127 72.678 62.6001 55.8192C70.9862 41.0728 80.092 25.0607 95.3454 16.8512C89.5891 12.3982 81.4433 10.3346 74.1664 10.3346C53.5303 10.3346 27.681 25.3228 27.681 49.9774C27.681 57.0371 31.4824 65.9432 39.7368 65.9432C50.9237 65.9432 57.8748 54.8649 57.8748 42.9178C57.8748 41.1197 57.7585 39.6123 57.6162 38.2602Z" fill="url(#paint1_linear_387_5292)"/>
<path fill-rule="evenodd" clip-rule="evenodd" d="M109.07 20.2042C111.312 22.9852 112.611 26.3962 112.611 30.3188C112.611 35.0295 110.649 38.6433 107.663 41.4049V26.3009C107.663 23.8541 108.132 21.8218 109.07 20.2042ZM110.312 18.5705C111.978 16.8803 114.342 16.0352 117.403 16.0352C120.553 16.0352 122.964 16.9295 124.636 18.7182C126.308 20.507 127.144 23.0345 127.144 26.3009V47.7655C127.144 51.0319 126.308 53.5594 124.636 55.3482C122.964 57.1369 120.553 58.0312 117.403 58.0312C114.254 58.0312 111.843 57.1369 110.171 55.3482C108.499 53.5594 107.663 51.0319 107.663 47.7655V44.0274C110.671 41.6654 113.061 38.5867 114.079 34.6388V48.1738C114.079 50.8569 115.187 52.1985 117.403 52.1985C119.62 52.1985 120.728 50.8569 120.728 48.1738V25.8926C120.728 23.2095 119.62 21.8679 117.403 21.8679C115.195 21.8679 114.087 23.1991 114.079 25.8615C113.399 23.1095 112.093 20.6644 110.312 18.5705ZM132.941 55.3482C134.613 57.1369 137.024 58.0312 140.174 58.0312C143.324 58.0312 145.735 57.1369 147.407 55.3482C149.079 53.5594 149.915 51.0319 149.915 47.7655V26.3009C149.915 23.0345 149.079 20.507 147.407 18.7182C145.735 16.9295 143.324 16.0352 140.174 16.0352C137.024 16.0352 134.613 16.9295 132.941 18.7182C131.269 20.507 130.433 23.0345 130.433 26.3009V47.7655C130.433 51.0319 131.269 53.5594 132.941 55.3482ZM143.499 48.1738C143.499 50.8569 142.39 52.1985 140.174 52.1985C137.958 52.1985 136.849 50.8569 136.849 48.1738V25.8926C136.849 23.2095 137.958 21.8679 140.174 21.8679C142.39 21.8679 143.499 23.2095 143.499 25.8926V48.1738ZM160.087 16.6184H153.671V57.448H160.087V44.4408L162.653 39.2497L168.078 57.448H174.785L167.028 31.6087L174.669 16.6184H168.253L160.087 33.8252V16.6184Z" fill="url(#paint2_linear_387_5292)"/>
</g>
<g style="mix-blend-mode:plus-lighter" opacity="0.34" filter="url(#filter1_f_387_5292)">
<path d="M130.373 75.1257H114.363V65.4215H130.101V67.1612H116.347V73.4132H130.373V75.1257ZM123.17 87.4665L121.62 87.9829C121.349 88.0645 121.158 87.9557 121.158 87.7111V79.8826H111.21V78.1429H133.119V79.8826H123.17V87.4665ZM152.909 87.7383H137.605V81.731H150.463V79.203H137.605V77.5177H152.501V83.3347H139.644V86.053H152.909V87.7383ZM146.902 74.7179L145.597 76.077L140.16 71.3473L134.507 76.3489L133.202 74.9897L139.155 69.7979V67.6777H133.854V65.938H139.155V63.5731H141.193V65.938H146.304V67.6777H141.193V69.7979L146.902 74.7179ZM152.501 75.8868L150.952 76.4032C150.707 76.512 150.517 76.376 150.517 76.1314V63.9265H152.501V75.8868ZM174.358 82.8998C174.358 85.156 172.863 87.7111 168.677 87.7111H163.892C159.706 87.7111 158.211 85.156 158.211 82.8998C158.211 80.6437 159.706 78.1157 163.892 78.1157H168.677C172.863 78.1157 174.358 80.6437 174.358 82.8998ZM172.319 82.8998C172.319 80.9971 171.069 79.8282 168.812 79.8282H163.757C161.5 79.8282 160.25 80.9971 160.25 82.8998C160.25 84.8026 161.5 85.9714 163.757 85.9714H168.812C171.069 85.9714 172.319 84.8026 172.319 82.8998ZM168.432 74.881L167.046 76.1586L161.201 70.2056L155.113 76.4304L153.753 75.18L160.196 68.6291V64.4702H162.234V68.6562L168.432 74.881ZM174.086 77.1915L172.536 77.708C172.292 77.7895 172.102 77.6808 172.102 77.409V69.7164H166.964V67.9767H172.102V63.9265H174.086V77.1915Z" fill="url(#paint3_linear_387_5292)"/>
<path fill-rule="evenodd" clip-rule="evenodd" d="M57.6162 38.2602C57.4981 38.17 57.4025 38.0419 57.3479 37.876L55.9106 33.5056C55.8318 33.2662 55.644 33.0784 55.4046 32.9996L51.0343 31.5623C50.3066 31.323 50.3066 30.2936 51.0343 30.0543L55.4046 28.617C55.644 28.5383 55.8318 28.3505 55.9106 28.111L57.3479 23.7407C57.5872 23.013 58.6166 23.013 58.8559 23.7407L60.2932 28.111C60.372 28.3505 60.5598 28.5383 60.7992 28.617L65.1695 30.0543C65.8972 30.2936 65.8972 31.323 65.1695 31.5623L60.7992 32.9996C60.5598 33.0784 60.372 33.2662 60.2932 33.5056L58.8861 37.784C59.0527 39.2157 59.1781 40.8495 59.1781 42.4833C59.1781 55.951 51.5753 67.8982 36.4785 67.8982C25.5088 67.8982 18.9922 60.2955 18.9922 49.543C18.9922 25.7573 51.1409 9.03125 74.818 9.03125C84.4844 9.03125 92.7388 10.769 100.776 14.136C106.424 11.7465 112.289 9.35708 118.479 9.03125L118.697 9.68292C114.678 9.68292 106.206 12.9412 103.491 15.5479C109.03 18.6976 112.614 23.8023 112.614 30.3189C112.614 42.8091 98.821 47.588 88.7202 49.2172L88.6116 49.4344C97.6262 50.5205 106.532 51.8238 106.532 63.2279C106.532 79.1937 91.544 89.1859 76.773 89.1859C70.6908 89.1859 63.4139 86.1448 63.4139 79.4109C63.4139 75.7182 66.455 72.4598 70.1478 72.4598C72.32 72.4598 74.275 73.2201 75.9041 74.632C72.9716 76.3698 71.6683 79.0851 71.6683 82.2348C71.6683 85.9276 73.8405 87.8825 77.5333 87.8825C88.9374 87.8825 96.1057 73.9804 96.1057 63.8796C96.1057 54.3219 91.1096 50.0861 80.7916 50.0861L80.9002 49.2172C91.544 48.5655 102.84 42.8091 102.84 29.8845C102.84 25.8659 101.428 21.9559 98.2779 19.2406C90.7209 25.2485 85.0699 35.5417 79.1024 46.4114C67.9169 66.7859 55.6193 89.1859 27.5724 89.1859C18.3405 89.1859 9 84.0812 9 75.1751C9 71.0479 11.2808 67.4637 15.8425 67.4637C19.2094 67.4637 21.273 69.7446 21.273 72.7857C21.273 75.5009 19.1008 77.5645 17.363 77.8904C17.2544 78.3248 17.2544 78.7592 17.2544 79.1937C17.2544 85.0587 21.273 87.8825 28.5499 87.8825C44.3661 87.8825 53.0127 72.678 62.6001 55.8192C70.9862 41.0728 80.092 25.0607 95.3454 16.8512C89.5891 12.3982 81.4433 10.3346 74.1664 10.3346C53.5303 10.3346 27.681 25.3228 27.681 49.9774C27.681 57.0371 31.4824 65.9432 39.7368 65.9432C50.9237 65.9432 57.8748 54.8649 57.8748 42.9178C57.8748 41.1197 57.7585 39.6123 57.6162 38.2602Z" fill="url(#paint4_linear_387_5292)"/>
<path fill-rule="evenodd" clip-rule="evenodd" d="M109.07 20.2042C111.312 22.9852 112.611 26.3962 112.611 30.3188C112.611 35.0295 110.649 38.6433 107.663 41.4049V26.3009C107.663 23.8541 108.132 21.8218 109.07 20.2042ZM110.312 18.5705C111.978 16.8803 114.342 16.0352 117.403 16.0352C120.553 16.0352 122.964 16.9295 124.636 18.7182C126.308 20.507 127.144 23.0345 127.144 26.3009V47.7655C127.144 51.0319 126.308 53.5594 124.636 55.3482C122.964 57.1369 120.553 58.0312 117.403 58.0312C114.254 58.0312 111.843 57.1369 110.171 55.3482C108.499 53.5594 107.663 51.0319 107.663 47.7655V44.0274C110.671 41.6654 113.061 38.5867 114.079 34.6388V48.1738C114.079 50.8569 115.187 52.1985 117.403 52.1985C119.62 52.1985 120.728 50.8569 120.728 48.1738V25.8926C120.728 23.2095 119.62 21.8679 117.403 21.8679C115.195 21.8679 114.087 23.1991 114.079 25.8615C113.399 23.1095 112.093 20.6644 110.312 18.5705ZM132.941 55.3482C134.613 57.1369 137.024 58.0312 140.174 58.0312C143.324 58.0312 145.735 57.1369 147.407 55.3482C149.079 53.5594 149.915 51.0319 149.915 47.7655V26.3009C149.915 23.0345 149.079 20.507 147.407 18.7182C145.735 16.9295 143.324 16.0352 140.174 16.0352C137.024 16.0352 134.613 16.9295 132.941 18.7182C131.269 20.507 130.433 23.0345 130.433 26.3009V47.7655C130.433 51.0319 131.269 53.5594 132.941 55.3482ZM143.499 48.1738C143.499 50.8569 142.39 52.1985 140.174 52.1985C137.958 52.1985 136.849 50.8569 136.849 48.1738V25.8926C136.849 23.2095 137.958 21.8679 140.174 21.8679C142.39 21.8679 143.499 23.2095 143.499 25.8926V48.1738ZM160.087 16.6184H153.671V57.448H160.087V44.4408L162.653 39.2497L168.078 57.448H174.785L167.028 31.6087L174.669 16.6184H168.253L160.087 33.8252V16.6184Z" fill="url(#paint5_linear_387_5292)"/>
</g>
<g style="mix-blend-mode:plus-lighter" filter="url(#filter2_f_387_5292)">
<path d="M140.279 8.95312L140.655 17.4443L149.147 17.8205L140.655 18.143L140.279 26.6879L139.903 18.143L131.412 17.8205L139.903 17.4443L140.279 8.95312Z" fill="#5465FF"/>
</g>
<g style="mix-blend-mode:plus-lighter" filter="url(#filter3_f_387_5292)">
<path d="M140.279 2L140.951 17.151L156.102 17.8222L140.951 18.3976L140.279 33.6444L139.608 18.3976L124.457 17.8222L139.608 17.151L140.279 2Z" fill="#AFB7FF"/>
</g>
<g style="mix-blend-mode:overlay" filter="url(#filter4_if_387_5292)">
<path d="M139.801 13.3533C139.953 12.8928 140.604 12.8928 140.756 13.3533L141.664 16.1143C141.713 16.2659 141.832 16.3847 141.984 16.4346L144.745 17.3426C145.205 17.4941 145.205 18.1455 144.745 18.297L141.984 19.2051C141.832 19.2549 141.713 19.3738 141.664 19.5253L140.756 22.2863C140.604 22.7469 139.953 22.7469 139.801 22.2863L138.893 19.5253C138.843 19.3738 138.724 19.2549 138.573 19.2051L135.812 18.297C135.351 18.1455 135.351 17.4941 135.812 17.3426L138.573 16.4346C138.724 16.3847 138.843 16.2659 138.893 16.1143L139.801 13.3533Z" fill="white"/>
</g>
<g style="mix-blend-mode:plus-lighter" filter="url(#filter5_f_387_5292)">
<path d="M29.5239 79.3633L29.9001 87.8545L38.3913 88.2307L29.9001 88.5531L29.5239 97.0981L29.1477 88.5531L20.6565 88.2307L29.1477 87.8545L29.5239 79.3633Z" fill="#5465FF"/>
</g>
<g style="mix-blend-mode:plus-lighter" filter="url(#filter6_f_387_5292)">
<path d="M29.5238 72.4062L29.9194 87.5572L57.2127 88.2285L29.9194 88.8038L29.5238 104.051L29.0294 88.8038L1.83496 88.2285L29.0294 87.5572L29.5238 72.4062Z" fill="#AFB7FF"/>
</g>
<g style="mix-blend-mode:overlay" filter="url(#filter7_if_387_5292)">
<path d="M29.0455 83.7634C29.197 83.3029 29.8484 83.3029 29.9999 83.7634L30.9079 86.5245C30.9578 86.676 31.0766 86.7949 31.2282 86.8447L33.9892 87.7528C34.4498 87.9042 34.4498 88.5557 33.9892 88.7072L31.2282 89.6152C31.0766 89.6651 30.9578 89.7839 30.9079 89.9355L29.9999 92.6965C29.8484 93.157 29.197 93.157 29.0455 92.6965L28.1375 89.9355C28.0876 89.7839 27.9688 89.6651 27.8172 89.6152L25.0562 88.7072C24.5956 88.5557 24.5956 87.9042 25.0562 87.7528L27.8172 86.8447C27.9688 86.7949 28.0876 86.676 28.1375 86.5245L29.0455 83.7634Z" fill="white"/>
</g>
<defs>
<filter id="filter0_f_387_5292" x="5.10811" y="5.13936" width="173.569" height="87.94" filterUnits="userSpaceOnUse" color-interpolation-filters="sRGB">
<feFlood flood-opacity="0" result="BackgroundImageFix"/>
<feBlend mode="normal" in="SourceGraphic" in2="BackgroundImageFix" result="shape"/>
<feGaussianBlur stdDeviation="1.94595" result="effect1_foregroundBlur_387_5292"/>
</filter>
<filter id="filter1_f_387_5292" x="2.15676" y="2.18801" width="179.472" height="93.8427" filterUnits="userSpaceOnUse" color-interpolation-filters="sRGB">
<feFlood flood-opacity="0" result="BackgroundImageFix"/>
<feBlend mode="normal" in="SourceGraphic" in2="BackgroundImageFix" result="shape"/>
<feGaussianBlur stdDeviation="3.42162" result="effect1_foregroundBlur_387_5292"/>
</filter>
<filter id="filter2_f_387_5292" x="130.226" y="7.76678" width="20.1075" height="20.1071" filterUnits="userSpaceOnUse" color-interpolation-filters="sRGB">
<feFlood flood-opacity="0" result="BackgroundImageFix"/>
<feBlend mode="normal" in="SourceGraphic" in2="BackgroundImageFix" result="shape"/>
<feGaussianBlur stdDeviation="0.593171" result="effect1_foregroundBlur_387_5292"/>
</filter>
<filter id="filter3_f_387_5292" x="123.271" y="0.813658" width="34.0172" height="34.0172" filterUnits="userSpaceOnUse" color-interpolation-filters="sRGB">
<feFlood flood-opacity="0" result="BackgroundImageFix"/>
<feBlend mode="normal" in="SourceGraphic" in2="BackgroundImageFix" result="shape"/>
<feGaussianBlur stdDeviation="0.593171" result="effect1_foregroundBlur_387_5292"/>
</filter>
<filter id="filter4_if_387_5292" x="134.675" y="12.2167" width="11.2062" height="11.2072" filterUnits="userSpaceOnUse" color-interpolation-filters="sRGB">
<feFlood flood-opacity="0" result="BackgroundImageFix"/>
<feBlend mode="normal" in="SourceGraphic" in2="BackgroundImageFix" result="shape"/>
<feColorMatrix in="SourceAlpha" type="matrix" values="0 0 0 0 0 0 0 0 0 0 0 0 0 0 0 0 0 0 127 0" result="hardAlpha"/>
<feOffset/>
<feGaussianBlur stdDeviation="0.814547"/>
<feComposite in2="hardAlpha" operator="arithmetic" k2="-1" k3="1"/>
<feColorMatrix type="matrix" values="0 0 0 0 0.259062 0 0 0 0 0.138444 0 0 0 0 1 0 0 0 0.75 0"/>
<feBlend mode="normal" in2="shape" result="effect1_innerShadow_387_5292"/>
<feGaussianBlur stdDeviation="0.395556" result="effect2_foregroundBlur_387_5292"/>
</filter>
<filter id="filter5_f_387_5292" x="19.4702" y="78.1769" width="20.1075" height="20.1071" filterUnits="userSpaceOnUse" color-interpolation-filters="sRGB">
<feFlood flood-opacity="0" result="BackgroundImageFix"/>
<feBlend mode="normal" in="SourceGraphic" in2="BackgroundImageFix" result="shape"/>
<feGaussianBlur stdDeviation="0.593171" result="effect1_foregroundBlur_387_5292"/>
</filter>
<filter id="filter6_f_387_5292" x="0.648619" y="71.2199" width="57.7504" height="34.0172" filterUnits="userSpaceOnUse" color-interpolation-filters="sRGB">
<feFlood flood-opacity="0" result="BackgroundImageFix"/>
<feBlend mode="normal" in="SourceGraphic" in2="BackgroundImageFix" result="shape"/>
<feGaussianBlur stdDeviation="0.593171" result="effect1_foregroundBlur_387_5292"/>
</filter>
<filter id="filter7_if_387_5292" x="23.9196" y="82.6269" width="11.2062" height="11.2072" filterUnits="userSpaceOnUse" color-interpolation-filters="sRGB">
<feFlood flood-opacity="0" result="BackgroundImageFix"/>
<feBlend mode="normal" in="SourceGraphic" in2="BackgroundImageFix" result="shape"/>
<feColorMatrix in="SourceAlpha" type="matrix" values="0 0 0 0 0 0 0 0 0 0 0 0 0 0 0 0 0 0 127 0" result="hardAlpha"/>
<feOffset/>
<feGaussianBlur stdDeviation="0.814547"/>
<feComposite in2="hardAlpha" operator="arithmetic" k2="-1" k3="1"/>
<feColorMatrix type="matrix" values="0 0 0 0 0.259062 0 0 0 0 0.138444 0 0 0 0 1 0 0 0 0.75 0"/>
<feBlend mode="normal" in2="shape" result="effect1_innerShadow_387_5292"/>
<feGaussianBlur stdDeviation="0.395556" result="effect2_foregroundBlur_387_5292"/>
</filter>
<linearGradient id="paint0_linear_387_5292" x1="144.544" y1="49.0059" x2="153.876" y2="104.227" gradientUnits="userSpaceOnUse">
<stop stop-color="white"/>
<stop offset="1" stop-color="#456DFD"/>
</linearGradient>
<linearGradient id="paint1_linear_387_5292" x1="64.3287" y1="-30.8778" x2="112.722" y2="122.467" gradientUnits="userSpaceOnUse">
<stop stop-color="white"/>
<stop offset="1" stop-color="#456DFD"/>
</linearGradient>
<linearGradient id="paint2_linear_387_5292" x1="141.518" y1="-4.87475" x2="163.766" y2="77.4583" gradientUnits="userSpaceOnUse">
<stop stop-color="white"/>
<stop offset="1" stop-color="#456DFD"/>
</linearGradient>
<linearGradient id="paint3_linear_387_5292" x1="144.544" y1="49.0059" x2="153.876" y2="104.227" gradientUnits="userSpaceOnUse">
<stop stop-color="white"/>
<stop offset="1" stop-color="#456DFD"/>
</linearGradient>
<linearGradient id="paint4_linear_387_5292" x1="64.3287" y1="-30.8778" x2="112.722" y2="122.467" gradientUnits="userSpaceOnUse">
<stop stop-color="white"/>
<stop offset="1" stop-color="#456DFD"/>
</linearGradient>
<linearGradient id="paint5_linear_387_5292" x1="141.518" y1="-4.87475" x2="163.766" y2="77.4583" gradientUnits="userSpaceOnUse">
<stop stop-color="white"/>
<stop offset="1" stop-color="#456DFD"/>
</linearGradient>
</defs>
</svg>
